<svg id="visual" viewBox="0 0 900 600" width="900" height="600" xmlns="http://www.w3.org/2000/svg" xmlns:xlink="http://www.w3.org/1999/xlink" version="1.1"><rect x="0" y="0" width="900" height="600" fill="#ffffff"></rect><defs><linearGradient id="grad1_0" x1="33.3%" y1="0%" x2="100%" y2="100%"><stop offset="20%" stop-color="#ffffff" stop-opacity="1"></stop><stop offset="80%" stop-color="#ffffff" stop-opacity="1"></stop></linearGradient></defs><defs><linearGradient id="grad2_0" x1="0%" y1="0%" x2="66.7%" y2="100%"><stop offset="20%" stop-color="#ffffff" stop-opacity="1"></stop><stop offset="80%" stop-color="#ffffff" stop-opacity="1"></stop></linearGradient></defs><g transform="translate(900, 0)"><path d="M0 297.5C-51.8 289.5 -103.5 281.6 -148.7 257.6C-194 233.6 -232.6 193.6 -256.3 148C-280 102.4 -288.8 51.2 -297.5 0L0 0Z" fill="#1a7246"></path></g><g transform="translate(0, 600)"><path d="M0 -297.5C58.3 -293.3 116.7 -289.2 148.7 -257.6C180.8 -226 186.6 -167 207 -119.5C227.4 -72 262.4 -36 297.5 0L0 0Z" fill="#1a7246"></path></g></svg>